<svg width="16" height="16" viewBox="0 0 16 16" fill="none" xmlns="http://www.w3.org/2000/svg">
<path d="M15.3206 7.99995C15.3206 6.55209 14.8912 5.13674 14.0869 3.93289C13.2825 2.72904 12.1392 1.79076 10.8015 1.23668C9.46386 0.682612 7.99195 0.537641 6.57191 0.820105C5.15187 1.10257 3.84748 1.79978 2.82369 2.82357C1.7999 3.84736 1.10269 5.15175 0.820227 6.57179C0.537764 7.99183 0.682734 9.46374 1.23681 10.8014C1.79088 12.139 2.72917 13.2823 3.93302 14.0867C5.13687 14.8911 6.55221 15.3205 8.00007 15.3205V13.8564C6.84178 13.8564 5.70951 13.5129 4.74643 12.8694C3.78335 12.2259 3.03272 11.3112 2.58946 10.2411C2.1462 9.17098 2.03023 7.99345 2.2562 6.85742C2.48217 5.72139 3.03994 4.67788 3.85897 3.85885C4.678 3.03981 5.72151 2.48204 6.85754 2.25607C7.99358 2.0301 9.1711 2.14608 10.2412 2.58934C11.3113 3.03259 12.226 3.78322 12.8695 4.74631C13.513 5.70939 13.8565 6.84166 13.8565 7.99995H15.3206Z" fill="#4B4B4B"/>
</svg>
