<svg width="15" height="15" viewBox="0 0 15 15" fill="none" xmlns="http://www.w3.org/2000/svg">
<path fill-rule="evenodd" clip-rule="evenodd" d="M11.1666 6.58333C11.1666 9.11463 9.11462 11.1667 6.58331 11.1667C4.05201 11.1667 1.99998 9.11463 1.99998 6.58333C1.99998 4.05202 4.05201 1.99999 6.58331 1.99999C9.11462 1.99999 11.1666 4.05202 11.1666 6.58333ZM10.3742 11.5528C9.32275 12.3561 8.00876 12.8333 6.58331 12.8333C3.13153 12.8333 0.333313 10.0351 0.333313 6.58333C0.333313 3.13155 3.13153 0.333328 6.58331 0.333328C10.0351 0.333328 12.8333 3.13155 12.8333 6.58333C12.8333 8.00878 12.3561 9.32276 11.5528 10.3743L14.214 13.0355C14.5395 13.361 14.5395 13.8886 14.214 14.214C13.8886 14.5395 13.3609 14.5395 13.0355 14.214L10.3742 11.5528Z" fill="#7D7D7D"/>
</svg>
